<svg xmlns="http://www.w3.org/2000/svg" viewBox="0 0 327 304"><defs><style>.cls-1{fill:#6ac079;}.cls-2,.cls-3{isolation:isolate;}.cls-3{font-size:30px;font-family:Montserrat-Regular, Montserrat;}.cls-3,.cls-7{fill:#fff;}.cls-4{letter-spacing:-0.01em;}.cls-5{letter-spacing:-0.02em;}.cls-6{letter-spacing:0em;}</style></defs><title>Asset 5</title><g id="Layer_2" data-name="Layer 2"><g id="icon"><g id="Group_289" data-name="Group 289"><rect id="Rectangle_735" data-name="Rectangle 735" class="cls-1" width="327" height="304"/><g id="Development_Design" data-name="Development Design" class="cls-2"><text class="cls-3" transform="translate(60.87 214)">D<tspan class="cls-4" x="24.78" y="0">e</tspan><tspan class="cls-5" x="42.6" y="0">v</tspan><tspan x="58.41" y="0">elop</tspan><tspan class="cls-6" x="123.75" y="0">m</tspan><tspan x="155.64" y="0">ent </tspan></text><text class="cls-3" transform="translate(96.77 251)">&amp; Design</text></g><path id="ic_desktop_windows_24px" data-name="ic desktop windows 24px" class="cls-7" d="M209,70H119a10,10,0,0,0-10,10v60a10,10,0,0,0,10,10h35v10H144v10h40V160H174V150h35a10,10,0,0,0,10-10V80A10,10,0,0,0,209,70Zm0,70H119V80h90Z"/></g></g></g></svg>