<svg xmlns="http://www.w3.org/2000/svg" viewBox="0 0 24.03 18.02"><defs><style>.cls-1{fill:#fff;fill-rule:evenodd;}</style></defs><title>Asset 2</title><g id="Layer_2" data-name="Layer 2"><g id="icon"><g id="email"><path id="Path_340" data-name="Path 340" class="cls-1" d="M22.38,0H1.64A1.63,1.63,0,0,0,0,1.61V16.38A1.63,1.63,0,0,0,1.61,18H22.38A1.63,1.63,0,0,0,24,16.41V1.64A1.63,1.63,0,0,0,22.42,0Zm.12,16.38a.17.17,0,0,1-.16.16H1.64a.19.19,0,0,1-.16-.16V1.64a.19.19,0,0,1,.16-.16H22.38a.17.17,0,0,1,.16.16V16.38Z"/><path id="Path_341" data-name="Path 341" class="cls-1" d="M21.34,2.28,12.13,8.93a.34.34,0,0,1-.28,0L2.64,2.28c-.28-.16-.56.2-.32.4l9,9a1,1,0,0,0,1.36,0l9-9a.27.27,0,0,0,0-.38A.29.29,0,0,0,21.34,2.28Z"/></g></g></g></svg>