<svg xmlns="http://www.w3.org/2000/svg" viewBox="0 0 434.8 434.8"><defs><style>.cls-1{fill:#6ac079;}.cls-2{fill:#fff;}</style></defs><title>Asset 14</title><g id="Layer_2" data-name="Layer 2"><g id="large_logo"><circle id="Ellipse_282" data-name="Ellipse 282" class="cls-1" cx="217.4" cy="217.4" r="217.4"/><path id="ic_palette_24px" data-name="ic palette 24px" class="cls-2" d="M217.77,76.66a150,150,0,0,0,0,300,25,25,0,0,0,18.5-41.83,24.9,24.9,0,0,1,18.67-41.5h29.5A83.36,83.36,0,0,0,367.77,210C367.77,136.33,300.6,76.66,217.77,76.66Zm-91.66,150a25,25,0,1,1,25-25h0a25,25,0,0,1-24.94,25Zm50-66.67a25,25,0,1,1,.06,0Zm83.33,0a25,25,0,1,1,.06,0Zm50,66.67a25,25,0,1,1,.06,0Z"/></g></g></svg>