<svg xmlns="http://www.w3.org/2000/svg" viewBox="0 0 327 304"><defs><style>.cls-1{fill:#1c1919;}.cls-2,.cls-4{fill:#fff;}.cls-3,.cls-4{isolation:isolate;}.cls-4{font-size:30px;font-family:Montserrat-Regular, Montserrat;}.cls-5{letter-spacing:-0.01em;}.cls-6{letter-spacing:0em;}</style></defs><title>Asset 6</title><g id="Layer_2" data-name="Layer 2"><g id="icon"><g id="Group_286" data-name="Group 286"><rect id="Rectangle_736" data-name="Rectangle 736" class="cls-1" width="327" height="304"/><path id="ic_palette_24px" data-name="ic palette 24px" class="cls-2" d="M164,73a50,50,0,0,0,0,100,8.34,8.34,0,0,0,6.17-13.94,8.31,8.31,0,0,1,6.22-13.84h9.83A27.78,27.78,0,0,0,214,117.44C214,92.89,191.61,73,164,73Zm-30.56,50a8.34,8.34,0,1,1,8.34-8.33,8.33,8.33,0,0,1-8.34,8.33Zm16.67-22.22a8.34,8.34,0,1,1,8.33-8.34,8.33,8.33,0,0,1-8.33,8.34Zm27.78,0a8.34,8.34,0,1,1,8.33-8.34,8.33,8.33,0,0,1-8.33,8.34ZM194.56,123a8.34,8.34,0,1,1,8.33-8.33,8.33,8.33,0,0,1-8.33,8.33Z"/><g id="Graphic_Design" data-name="Graphic Design" class="cls-3"><text class="cls-4" transform="translate(47 223)">G<tspan class="cls-5" x="23.19" y="0">r</tspan><tspan class="cls-6" x="34.95" y="0">aphic Design</tspan></text></g></g></g></g></svg>