<svg xmlns="http://www.w3.org/2000/svg" viewBox="0 0 17.62 30"><defs><style>.cls-1{fill:#fff;}</style></defs><title>Asset 3</title><g id="Layer_2" data-name="Layer 2"><g id="icon"><g id="location"><path id="AI_mappointer" data-name="AI mappointer" class="cls-1" d="M17.62,9.4c0-5.2-3.94-9.4-8.81-9.4S0,4.2,0,9.4a10.39,10.39,0,0,0,1,4.35H1l6.57,15.4A1.41,1.41,0,0,0,8.76,30,1.35,1.35,0,0,0,10,29.15l6.56-15.4h0A9,9,0,0,0,17.62,9.4ZM3.84,4.05a6.72,6.72,0,0,1,9.48-.46c.16.15.31.3.46.46a7.84,7.84,0,0,1,0,10.6,6.72,6.72,0,0,1-9.48.46c-.16-.15-.31-.3-.46-.46a7.77,7.77,0,0,1-2.06-5.3A7.88,7.88,0,0,1,3.84,4.05Z"/></g></g></g></svg>