<svg xmlns="http://www.w3.org/2000/svg" viewBox="0 0 172.82 178.46"><defs><style>.cls-1{fill:#6ac079;}.cls-2{fill:#30302c;}</style></defs><title>Asset 11</title><g id="Layer_2" data-name="Layer 2"><g id="large_logo"><g id="Group_256" data-name="Group 256"><g id="Group_253" data-name="Group 253"><g id="Group_252" data-name="Group 252"><g id="Group_251" data-name="Group 251"><g id="Group_250" data-name="Group 250"><path id="Path_332" data-name="Path 332" class="cls-1" d="M162.64,52.28c-1-1.88-2-3.72-3.17-5.53a89.76,89.76,0,0,0-12.76-16l-1.3-1.27a18.07,18.07,0,0,1-.43,3.1,11.5,11.5,0,0,1-2.64,5,82.12,82.12,0,0,1,9,11.19c1.34,2,2.6,4.08,3.76,6.22a81.26,81.26,0,0,1-32.55,110.21,82.86,82.86,0,0,1-9.27,4.3c4.54-.07,9.1-.26,13.59-.76,2.46-.4,3-.88,5.47-1.45,4.44-3.06,10.87-6.22,14.76-10.12,16.84-16.83,25.72-39.57,25.72-63.38A88.65,88.65,0,0,0,162.64,52.28Z"/><ellipse id="Ellipse_295" data-name="Ellipse 295" class="cls-2" cx="89.09" cy="89.06" rx="81.4" ry="82.87"/><path id="Path_333" data-name="Path 333" class="cls-1" d="M140.59,153.49s-.17,0-.19-.09c-13.93,11.21-31.84,17.22-51.07,17.22a81.29,81.29,0,1,1,0-162.57h0c23.5,0,44.42,7.55,57.18,23.39,3.59,4.44,7.37,8.22,10.47,12.86.55.83-.7.33-.18,1.17.12-.57.89-.37,1.06-.94.47-1.6,3.57-7.21-1.38-13.53-.1-.13-2.75-3.31-4.12-4.68A89.13,89.13,0,1,0,25.89,151.94l.42.42a89.15,89.15,0,0,0,118.09,7.07A11.69,11.69,0,0,1,140.59,153.49Z"/><path id="Path_334" data-name="Path 334" class="cls-1" d="M122.45,154.24h-4.6L89,83.81,60.24,154.24H55.65l-31.12-104H43.18l16,67.73L86.33,50.27h4.6q10.78,25.78,21.56,51.56c1.82,4.35,4.58,11.83,6.39,16.17-.28-.62.47-2.27.63-2.86.64-2.31,1.35-4.6,2.06-6.89,2.22-7.15,4.54-14.27,6.87-21.39q3.94-12,7.95-24,2.58-7.76,5.16-15.54c1.56-4.7,3.89-9.6,3.41-14.67a13.38,13.38,0,0,0-3-7.27c-1.78-2.15-4.37-3.47-5.95-5.8,1.55-.25,3.58.23,5.17.42,2.82.33,2.31-.86,4.7.79,3.41,2.37,9.06,7,11.08,10.58,4.07,7.29,1.52,14.22-1,21.5-1.36,3.88-2.52,7.84-3.81,11.75l-6.6,20q-3.69,11.16-7.37,22.31-3.51,10.61-7,21.22-2.76,8.35-5.53,16.72l-2.91,8.82C122.58,153.84,122.51,154,122.45,154.24Z"/></g></g></g></g></g></g></g></svg>