<svg xmlns="http://www.w3.org/2000/svg" viewBox="0 0 1080.82 1116.12"><defs><style>.cls-1{fill:#6ac079;}.cls-2{fill:#30302c;}</style></defs><title>Asset 17</title><g id="Layer_2" data-name="Layer 2"><g id="large_logo"><g id="Group_246" data-name="Group 246"><path id="Path_332" data-name="Path 332" class="cls-1" d="M1017.09,326q-9.29-17.61-19.83-34.58a562,562,0,0,0-79.91-100.48q-4-4-8.17-8a114.25,114.25,0,0,1-2.69,19.39c-2.67,11.74-8.68,22.21-16.51,31.14a516.29,516.29,0,0,1,56.32,70.08q12.6,18.89,23.56,38.95a505.62,505.62,0,0,1,61.86,243c0,215.31-134.38,399.8-323.67,474.05,28.4-.47,56.93-1.65,85.08-4.77,15.39-2.49,19.08-5.52,34.24-9.09,27.79-19.19,68-38.94,92.42-63.33,105.41-105.42,161-247.78,161-396.85A555.53,555.53,0,0,0,1017.09,326Z"/><g id="Group_245" data-name="Group 245"><ellipse id="Ellipse_295" data-name="Ellipse 295" class="cls-2" cx="556.57" cy="556.34" rx="509.7" ry="518.91"/><g id="Group_348" data-name="Group 348"><path id="Path_333" data-name="Path 333" class="cls-1" d="M879,959.79c-.08-.29-1.08-.29-1.16-.59-87.25,70.17-199.38,107.85-319.8,107.85-280.66,0-509-228.33-509-509s228.33-509,509-509c147.15,0,278.13,47.33,358.06,146.46,22.42,27.83,46.09,51.47,65.51,80.58,3.43,5.14-4.36,2.06-1.12,7.32.78-3.59,5.56-2.36,6.64-5.93,3-10,22.36-45.15-8.62-84.72-.63-.8-17.2-20.7-25.83-29.32C847.29,58.05,707.15,0,558.08,0S268.86,58,163.46,163.42,0,409,0,558,58.05,847.27,163.46,952.66,409,1116.12,558.08,1116.12c126.67,0,246.87-41.92,344.8-119.2C890.49,986.12,883.08,974.54,879,959.79Z"/><path id="Path_334" data-name="Path 334" class="cls-1" d="M765.42,964.46H736.65L556,523.46l-180.08,441H347.15l-194.82-651H269.11L369.44,737.55,539.31,313.46h28.77l135,322.86c11.37,27.2,28.65,74,40,101.23-1.79-3.87,2.92-14.23,3.92-17.91,4-14.47,8.45-28.81,12.9-43.16,13.89-44.77,28.42-89.35,43-133.91q24.66-75.29,49.76-150.44,16.23-48.63,32.35-97.33c9.78-29.42,24.37-60.09,21.36-91.86a84.35,84.35,0,0,0-19.06-45.54c-11.14-13.46-27.36-21.7-37.28-36.31,9.76-1.56,22.47,1.49,32.4,2.65,17.64,2.08,14.44-5.38,29.4,5,21.37,14.8,56.74,43.51,69.4,66.21,25.47,45.68,9.55,89-6.42,134.62-8.52,24.29-15.79,49.11-23.88,73.58q-20.67,62.56-41.35,125.11-23.1,69.84-46.17,139.67-21.94,66.42-43.91,132.86-17.32,52.38-34.62,104.73l-18.27,55.25Z"/></g></g></g></g></g></svg>