<svg xmlns="http://www.w3.org/2000/svg" viewBox="0 0 19.99 28.65"><defs><style>.cls-1{fill:#fff;}</style></defs><title>Asset 4</title><g id="Layer_2" data-name="Layer 2"><g id="icon"><g id="phone"><path id="ic_call_end_24px" data-name="ic call end 24px" class="cls-1" d="M5.7,16.72a20.29,20.29,0,0,0,4.1,4.9l3.65-2.19a1.38,1.38,0,0,1,1.45,0A16,16,0,0,0,19,21.28a1.34,1.34,0,0,1,.83.62,1.4,1.4,0,0,1,.16,1l-1.17,4.67a1.27,1.27,0,0,1-.62.84,1.35,1.35,0,0,1-1,.16A23.37,23.37,0,0,1,.56,1,1.39,1.39,0,0,1,2.23,0L6.9,1.2a1.39,1.39,0,0,1,.85.63,1.43,1.43,0,0,1,.16,1,15.46,15.46,0,0,0-.29,4.45A1.36,1.36,0,0,1,7,8.6L3.31,10.8A19.9,19.9,0,0,0,5.7,16.72Z"/></g></g></g></svg>