<svg xmlns="http://www.w3.org/2000/svg" viewBox="0 0 327 304"><defs><style>.cls-1{fill:#1c1919;}.cls-2,.cls-4{fill:#fff;}.cls-3,.cls-4{isolation:isolate;}.cls-4{font-size:30px;font-family:Montserrat-Regular, Montserrat;}.cls-5{letter-spacing:0em;}.cls-6{letter-spacing:-0.02em;}.cls-7{letter-spacing:0em;}.cls-8{letter-spacing:-0.01em;}.cls-9{letter-spacing:-0.01em;}</style></defs><title>Asset 7</title><g id="Layer_2" data-name="Layer 2"><g id="icon"><g id="Group_288" data-name="Group 288"><rect id="Rectangle_737" data-name="Rectangle 737" class="cls-1" width="327" height="304"/><g id="Group_204" data-name="Group 204"><g id="Group_169" data-name="Group 169"><circle id="Ellipse_14" data-name="Ellipse 14" class="cls-2" cx="164" cy="128.16" r="15.88"/><path id="Path_89" data-name="Path 89" class="cls-2" d="M149,79l-9.15,10H124a10,10,0,0,0-10,10v60a10,10,0,0,0,10,10h80a10,10,0,0,0,10-10V99a10,10,0,0,0-10-10H188.15L179,79Zm15,75a25,25,0,1,1,25-25A25,25,0,0,1,164,154Z"/></g><g id="Photography" class="cls-3"><text class="cls-4" transform="translate(65 216)">P<tspan class="cls-5" x="21.54" y="0">h</tspan><tspan x="41.91" y="0">o</tspan><tspan class="cls-6" x="60.72" y="0">t</tspan><tspan class="cls-7" x="72.33" y="0">og</tspan><tspan class="cls-8" x="111.72" y="0">r</tspan><tspan x="123.48" y="0">ap</tspan><tspan class="cls-9" x="161.52" y="0">h</tspan><tspan x="181.53" y="0">y</tspan></text></g></g></g></g></g></svg>