<svg xmlns="http://www.w3.org/2000/svg" viewBox="0 0 434.8 434.8"><defs><style>.cls-1{fill:#6ac079;}.cls-2{fill:#fff;}</style></defs><title>Asset 15</title><g id="Layer_2" data-name="Layer 2"><g id="large_logo"><circle id="Ellipse_282" data-name="Ellipse 282" class="cls-1" cx="217.4" cy="217.4" r="217.4"/><circle id="Ellipse_14" data-name="Ellipse 14" class="cls-2" cx="217.38" cy="215.47" r="46.63"/><path id="Path_89" data-name="Path 89" class="cls-2" d="M176.51,77.93l-24.93,27.25H108.39a27.33,27.33,0,0,0-27.25,27.25V295.92a27.33,27.33,0,0,0,27.25,27.25h218a27.32,27.32,0,0,0,27.24-27.25V132.43a27.32,27.32,0,0,0-27.24-27.25H283.19L258.25,77.93Zm40.87,204.36a68.12,68.12,0,1,1,68.12-68.12,68.12,68.12,0,0,1-68.12,68.12Z"/></g></g></svg>